<?xml version="1.0" encoding="UTF-8"?>
<svg version="1.1" xmlns="http://www.w3.org/2000/svg" width="512" height="512">
<path d="M0 0 C168.96 0 337.92 0 512 0 C512 168.96 512 337.92 512 512 C343.04 512 174.08 512 0 512 C0 343.04 0 174.08 0 0 Z " fill="#0B141A" transform="translate(0,0)"/>
<path d="M0 0 C4.02700664 1.50204066 7.69020961 3.39778607 11.4453125 5.484375 C12.05583466 5.82245178 12.66635681 6.16052856 13.29537964 6.5088501 C15.24012551 7.58648636 17.18261973 8.66810676 19.125 9.75 C21.03969787 10.81296739 22.9548514 11.87510807 24.870224 12.93685913 C26.12810153 13.63491735 27.38523452 14.33431891 28.64161682 15.0350647 C31.43143454 16.58908483 34.22645754 18.11884903 37.05444336 19.60302734 C43.33087459 22.90006009 48.80964663 26.663227 54.3125 31.125 C55.82790633 32.33784007 57.34480109 33.54882309 58.86328125 34.7578125 C59.51594971 35.2852002 60.16861816 35.81258789 60.84106445 36.35595703 C63.08134989 38.13646962 63.08134989 38.13646962 66.10327148 39.77416992 C69.72740869 42.55893679 70.29219356 44.48461767 71.484375 48.85546875 C71.67090637 49.51654129 71.85743774 50.17761383 72.04962158 50.85871887 C72.63769949 52.96310651 73.19389993 55.07446469 73.75 57.1875 C74.13730571 58.5871483 74.52661175 59.9862447 74.91796875 61.38476562 C76.81190729 68.21557231 78.50316281 75.07073907 80 82 C80.350625 83.03125 80.70125 84.0625 81.0625 85.125 C82.13038567 88.3998494 82.59031236 91.58593634 83 95 C79.48019965 93.71842574 76.67099826 92.2254156 73.671875 89.98828125 C72.87136719 89.39466797 72.07085937 88.80105469 71.24609375 88.18945312 C70.42238281 87.57005859 69.59867187 86.95066406 68.75 86.3125 C67.94175781 85.71244141 67.13351563 85.11238281 66.30078125 84.49414062 C60.80889251 80.40378189 55.38984505 76.22366386 50 72 C50.92414359 74.77243077 51.83955233 76.37784498 53.50390625 78.72265625 C53.99697266 79.42583984 54.49003906 80.12902344 54.99804688 80.85351562 C56.04416298 82.33061589 57.0910428 83.80717555 58.13867188 85.28320312 C58.63044922 85.98509766 59.12222656 86.68699219 59.62890625 87.41015625 C60.08338135 88.05090088 60.53785645 88.69164551 61.00610352 89.35180664 C62 91 62 91 62 93 C39.06155067 94.82296027 39.06155067 94.82296027 32.26953125 89.87841797 C29.73740762 87.6855924 27.3792275 85.35959151 25 83 C22.82364155 81.25878488 20.57362715 79.62886404 18.3125 78 C13.23076923 74.23076923 13.23076923 74.23076923 11 72 C10.85229492 69.21289062 10.85229492 69.21289062 10.98046875 65.65625 C11.01317871 64.35606934 11.04588867 63.05588867 11.07958984 61.71630859 C11.09834167 61.02784851 11.11709351 60.33938843 11.13641357 59.63006592 C11.42659232 47.53096444 10.89873692 36.73626495 6.77490234 25.25292969 C5.2187183 20.72852315 3.98599671 16.10347816 2.6875 11.5 C2.42114746 10.58395996 2.15479492 9.66791992 1.88037109 8.72412109 C1.63496582 7.87672363 1.38956055 7.02932617 1.13671875 6.15625 C0.91717529 5.40150391 0.69763184 4.64675781 0.47143555 3.86914062 C0 2 0 2 0 0 Z " fill="#7B858A" transform="translate(165,149)"/>
<path d="M0 0 C-1.80585653 3.97350814 -4.26131776 7.5089991 -6.69140625 11.1171875 C-7.15554428 11.81079376 -7.61968231 12.50440002 -8.09788513 13.21902466 C-9.5838982 15.43916091 -11.07296207 17.65722743 -12.5625 19.875 C-14.50294836 22.76712912 -16.44161178 25.66044488 -18.37890625 28.5546875 C-18.85494293 29.26486023 -19.33097961 29.97503296 -19.82144165 30.70672607 C-23.62468059 36.39672139 -27.30979262 42.15507258 -30.94506836 47.95361328 C-34.00976122 52.49694672 -37.33708128 56.66159131 -41.5625 60.1875 C-45.0605239 63.1660805 -48.4467601 66.24890078 -51.8125 69.375 C-56.55896498 73.76800482 -61.45859791 77.90832956 -66.52734375 81.9296875 C-69.17888835 84.14978014 -71.57358242 86.53778282 -74 89 C-79.4691358 94 -79.4691358 94 -82 94 C-80.5637033 84.24644493 -77.96287653 74.7947305 -75.36914062 65.30004883 C-74.62099849 62.54777921 -73.89249738 59.79074471 -73.1640625 57.03320312 C-72.68609352 55.27311182 -72.2069681 53.51333406 -71.7265625 51.75390625 C-71.40602402 50.5242086 -71.40602402 50.5242086 -71.07901001 49.26966858 C-69.83339559 44.80571251 -68.74866698 41.97688261 -65 39 C-64.43877441 38.53376221 -63.87754883 38.06752441 -63.29931641 37.5871582 C-61.41175453 36.156965 -59.52175965 34.73048376 -57.625 33.3125 C-56.99722656 32.83361328 -56.36945313 32.35472656 -55.72265625 31.86132812 C-44.24081898 23.24433284 -32.0130761 16.18936445 -19.3125 9.5625 C-17.29664005 8.50397428 -15.28174425 7.44365253 -13.2676239 6.38182068 C-11.47091275 5.43558995 -9.67169098 4.49413083 -7.87231445 3.55297852 C-1.30089609 0 -1.30089609 0 0 0 Z " fill="#E0E3E2" transform="translate(343,150)"/>
<path d="M0 0 C0.88068649 0.00022659 1.76137299 0.00045319 2.66874695 0.00068665 C3.61570938 0.0161705 4.56267181 0.03165436 5.53833008 0.04760742 C6.51071121 0.05185226 7.48309235 0.05609711 8.48493958 0.06047058 C11.59286099 0.07727302 14.70013567 0.11492838 17.80786133 0.15307617 C19.91397176 0.16812097 22.02009235 0.18180973 24.1262207 0.1940918 C29.29118371 0.22718173 34.45566284 0.27897508 39.62036133 0.34057617 C31.27055095 20.12530398 20.61231067 39.9525282 6.95629883 56.60620117 C5.08288659 59.03835039 3.84407034 61.53324374 2.62036133 64.34057617 C1.96036133 64.34057617 1.30036133 64.34057617 0.62036133 64.34057617 C0.29165039 63.70893555 -0.03706055 63.07729492 -0.37573242 62.42651367 C-2.95205946 57.5810639 -5.61032478 52.96530877 -8.76879883 48.47167969 C-15.11889708 39.30592198 -17.84744097 29.60702988 -19.86401367 18.72729492 C-19.06577822 14.79405409 -16.32723198 12.50432096 -13.56713867 9.71557617 C-13.01993164 9.14323242 -12.47272461 8.57088867 -11.90893555 7.98120117 C-10.41208045 6.42084313 -8.90196887 4.87604991 -7.37963867 3.34057617 C-6.94522461 2.82259964 -6.51081055 2.30462311 -6.06323242 1.77095032 C-3.90807877 -0.06005914 -2.79979124 -0.02406697 0 0 Z " fill="#687379" transform="translate(207.379638671875,247.659423828125)"/>
<path d="M0 0 C6.33194853 -0.18823677 12.65943379 -0.27201527 18.99414062 -0.28686523 C21.14354158 -0.30378838 23.29289958 -0.34369444 25.44140625 -0.40795898 C44.2787734 -0.94629452 44.2787734 -0.94629452 50.05664062 3.87744141 C53.13883209 6.97550316 55.56219434 10.38300729 58 14 C58.59603027 14.58426758 59.19206055 15.16853516 59.80615234 15.77050781 C60.20012207 16.17624023 60.5940918 16.58197266 61 17 C60.8046875 19.27734375 60.8046875 19.27734375 60 22 C59.71382813 23.05316406 59.42765625 24.10632813 59.1328125 25.19140625 C58.80023438 26.30386719 58.46765625 27.41632813 58.125 28.5625 C57.79757812 29.67753906 57.47015625 30.79257812 57.1328125 31.94140625 C56.07515616 34.79707836 54.96511715 36.70362025 53 39 C51.82767315 37.3790787 50.6622923 35.75313167 49.5 34.125 C48.8503125 33.22007812 48.200625 32.31515625 47.53125 31.3828125 C46 29 46 29 46 27 C44.87105124 27.93274109 43.74699124 28.87140122 42.625 29.8125 C41.99851562 30.33457031 41.37203125 30.85664063 40.7265625 31.39453125 C38.7778952 33.08225739 38.7778952 33.08225739 37 36 C36.93954017 39.00739559 36.93954017 39.00739559 37.3125 42.3125 C37.46138672 43.97732422 37.46138672 43.97732422 37.61328125 45.67578125 C37.86379276 47.82916807 38.16919401 49.9771567 38.5390625 52.11328125 C38.96273794 54.76663844 39.10311443 57.19444731 39.0625 59.875 C39.05347656 60.65617187 39.04445313 61.43734375 39.03515625 62.2421875 C39.02355469 62.82226562 39.01195312 63.40234375 39 64 C34.13341204 61.0544336 30.11014045 57.48360028 25.953125 53.609375 C23.18383483 51.05048069 23.18383483 51.05048069 20.61474609 49.38354492 C12.95826169 43.99651448 10.62323001 38.67924942 8.125 29.8125 C7.5990625 28.09836914 7.5990625 28.09836914 7.0625 26.34960938 C6.36327764 24.05900872 5.67979748 21.76353933 5.01269531 19.46337891 C3.65952816 14.83559944 2.19524481 10.24447583 0.72998047 5.65112305 C0 3 0 3 0 0 Z " fill="#616A71" transform="translate(261,247)"/>
<path d="M0 0 C1.17949387 3.53848161 0.74297664 4.61962912 -0.328125 8.12109375 C-0.63363281 9.14009766 -0.93914062 10.15910156 -1.25390625 11.20898438 C-1.58261719 12.27439453 -1.91132813 13.33980469 -2.25 14.4375 C-7.39097851 29.52967135 -7.39097851 29.52967135 -9.25 45.1875 C-9.24419922 46.80205078 -9.24419922 46.80205078 -9.23828125 48.44921875 C-9.05583296 51.16799742 -8.72364077 53.5046337 -8.16796875 56.14453125 C-6.59588319 64.70034166 -6.59588319 64.70034166 -8 69 C-11.91447749 74.06823186 -17.55260522 77.34601064 -22.93310547 80.67089844 C-25.48106427 82.3093449 -27.68486012 84.23039183 -29.9375 86.25 C-34.46736947 89.74447073 -38.39679631 90.04518713 -44 90 C-45.3096875 90.01289063 -46.619375 90.02578125 -47.96875 90.0390625 C-51.64647239 90.06712683 -55.32238214 90.04413141 -59 90 C-56.9725065 84.51384113 -54.13597905 80.1802019 -50.71875 75.4453125 C-48.57817948 72.39986444 -46.77630486 69.26840094 -45 66 C-45.66 66 -46.32 66 -47 66 C-47 66.99 -47 67.98 -47 69 C-48.10021484 69.37511719 -48.10021484 69.37511719 -49.22265625 69.7578125 C-52.22561824 71.10090942 -54.05480933 72.62397317 -56.4375 74.875 C-59.80767286 77.97465731 -63.10549021 80.60337859 -67 83 C-67.66 82.67 -68.32 82.34 -69 82 C-63.72469613 77.23276842 -58.43340234 72.48858908 -53.0703125 67.8203125 C-49.84610846 64.98544631 -46.67029665 62.09728581 -43.4921875 59.2109375 C-41 57 -41 57 -38.23828125 55.0234375 C-33.14754049 50.79682566 -29.87951234 44.74934569 -26.3125 39.25 C-25.51090179 38.02965919 -24.70848716 36.80985428 -23.90527344 35.59057617 C-19.05977342 28.2210791 -14.24404278 20.82889669 -9.5246582 13.37792969 C-6.57013284 8.74527353 -3.34427604 4.35853538 0 0 Z " fill="#2F393F" transform="translate(342,152)"/>
<path d="M0 0 C4.02700664 1.50204066 7.69020961 3.39778607 11.4453125 5.484375 C12.05583466 5.82245178 12.66635681 6.16052856 13.29537964 6.5088501 C15.24012551 7.58648636 17.18261973 8.66810676 19.125 9.75 C21.04032951 10.81331805 22.95611649 11.87580761 24.87200928 12.93811035 C26.1236403 13.63252919 27.37482488 14.32775335 28.62554932 15.02380371 C33.36475361 17.65905774 38.13365089 20.23603378 42.92138672 22.78222656 C46.94686888 25.14058985 47.68050472 27.66451552 49 32 C48.53360107 32.39638672 48.06720215 32.79277344 47.58666992 33.20117188 C45.67054355 35.37350902 45.25805527 36.96944548 44.61328125 39.78125 C44.39736328 40.70550781 44.18144531 41.62976563 43.95898438 42.58203125 C43.74564453 43.54496094 43.53230469 44.50789063 43.3125 45.5 C43.08755859 46.46292969 42.86261719 47.42585938 42.63085938 48.41796875 C41.40203855 53.65703807 41.40203855 53.65703807 41 59 C40.34 58.34 39.68 57.68 39 57 C32.90327927 57.0093222 28.66034682 60.57682821 23.875 63.9375 C22.29039313 65.03187712 20.70449993 66.12439456 19.1171875 67.21484375 C18.42222168 67.70073975 17.72725586 68.18663574 17.01123047 68.68725586 C15.06341425 69.95860908 13.10010287 71.00467246 11 72 C11.02618408 71.15518066 11.05236816 70.31036133 11.0793457 69.43994141 C11.74524884 46.99262116 11.74524884 46.99262116 6.77490234 25.25292969 C5.2187183 20.72852315 3.98599671 16.10347816 2.6875 11.5 C2.42114746 10.58395996 2.15479492 9.66791992 1.88037109 8.72412109 C1.63496582 7.87672363 1.38956055 7.02932617 1.13671875 6.15625 C0.91717529 5.40150391 0.69763184 4.64675781 0.47143555 3.86914062 C0 2 0 2 0 0 Z " fill="#D0D5D5" transform="translate(165,149)"/>
<path d="M0 0 C3.15948097 1.35333646 4.8933646 3.1562518 7.23828125 5.6640625 C11.45351993 10.05441496 15.79738829 14.095286 20.42578125 18.0390625 C21.04453125 18.59722656 21.66328125 19.15539062 22.30078125 19.73046875 C25.55365828 22.63983075 28.2243938 24.63860002 32.42578125 26.0390625 C33.41578125 26.6990625 34.40578125 27.3590625 35.42578125 28.0390625 C35.75578125 26.7190625 36.08578125 25.3990625 36.42578125 24.0390625 C37.08578125 24.0390625 37.74578125 24.0390625 38.42578125 24.0390625 C38.47476563 24.66554687 38.52375 25.29203125 38.57421875 25.9375 C38.68636719 27.16339844 38.68636719 27.16339844 38.80078125 28.4140625 C38.90519531 29.63222656 38.90519531 29.63222656 39.01171875 30.875 C39.25470713 33.24240441 39.25470713 33.24240441 41.42578125 35.0390625 C41.75578125 32.3990625 42.08578125 29.7590625 42.42578125 27.0390625 C42.75578125 27.0390625 43.08578125 27.0390625 43.42578125 27.0390625 C44.41578125 32.9790625 44.41578125 32.9790625 45.42578125 39.0390625 C41.56880355 37.49627142 39.28886541 36.40776063 36.09765625 34.02734375 C35.29714844 33.43373047 34.49664062 32.84011719 33.671875 32.22851562 C32.84816406 31.60912109 32.02445313 30.98972656 31.17578125 30.3515625 C30.36753906 29.75150391 29.55929688 29.15144531 28.7265625 28.53320312 C23.23467376 24.44284439 17.8156263 20.26272636 12.42578125 16.0390625 C13.34992484 18.81149327 14.26533358 20.41690748 15.9296875 22.76171875 C16.66928711 23.81649414 16.66928711 23.81649414 17.42382812 24.89257812 C18.46994423 26.36967839 19.51682405 27.84623805 20.56445312 29.32226562 C21.30211914 30.37510742 21.30211914 30.37510742 22.0546875 31.44921875 C22.5091626 32.08996338 22.9636377 32.73070801 23.43188477 33.39086914 C24.42578125 35.0390625 24.42578125 35.0390625 24.42578125 37.0390625 C1.49055305 38.86176678 1.49055305 38.86176678 -5.30517578 33.91796875 C-7.83483008 31.72576432 -10.19043981 29.39014214 -12.57421875 27.0390625 C-14.79354287 25.339742 -17.08849454 23.75449047 -19.38671875 22.1640625 C-22.40625 20.046875 -22.40625 20.046875 -24.57421875 18.0390625 C-24.57421875 16.7190625 -24.57421875 15.3990625 -24.57421875 14.0390625 C-23.20068359 12.73046875 -23.20068359 12.73046875 -21.28515625 11.6015625 C-20.59035156 11.18132812 -19.89554688 10.76109375 -19.1796875 10.328125 C-18.44363281 9.90273437 -17.70757812 9.47734375 -16.94921875 9.0390625 C-15.5190876 8.18563885 -14.08939347 7.33148238 -12.66015625 6.4765625 C-11.96374023 6.07050781 -11.26732422 5.66445312 -10.54980469 5.24609375 C-8.75687863 4.1506629 -7.05249543 2.91350559 -5.36328125 1.6640625 C-2.57421875 0.0390625 -2.57421875 0.0390625 0 0 Z " fill="#556066" transform="translate(202.57421875,204.9609375)"/>
<path d="M0 0 C1.23093636 0.00033989 1.23093636 0.00033989 2.48674011 0.00068665 C3.36808121 0.0161705 4.2494223 0.03165436 5.1574707 0.04760742 C6.5161602 0.05397469 6.5161602 0.05397469 7.90229797 0.06047058 C10.79625128 0.07726769 13.68950902 0.11492167 16.58325195 0.15307617 C18.54483044 0.16812168 20.50641984 0.18181032 22.46801758 0.1940918 C27.27753051 0.2271746 32.08652329 0.27896395 36.89575195 0.34057617 C36.89575195 0.67057617 36.89575195 1.00057617 36.89575195 1.34057617 C35.40688477 1.59581055 35.40688477 1.59581055 33.88793945 1.85620117 C30.27502465 2.48834934 26.68033057 3.1967581 23.08520508 3.92260742 C21.08894435 4.30369555 19.07834642 4.60762352 17.06762695 4.90307617 C10.40400731 6.19470289 6.56779751 7.9751664 2.67211914 13.47607422 C0.99686366 16.08733224 -0.56634313 18.74258977 -2.06420898 21.45922852 C-3.53397225 24.11791296 -5.13775086 26.69096795 -6.72924805 29.27807617 C-7.52494362 30.62987942 -8.31844887 31.98299629 -9.10424805 33.34057617 C-6.23004682 30.62452903 -6.23004682 30.62452903 -4.10424805 27.34057617 C0.08527197 28.95193003 3.71290616 31.37856154 5.89575195 35.34057617 C6.778037 44.5007709 3.85856598 54.41532748 1.89575195 63.34057617 C-0.44646904 61.16232349 -2.08747699 58.953159 -3.7331543 56.21557617 C-4.21075195 55.42666992 -4.68834961 54.63776367 -5.18041992 53.82495117 C-5.6709082 53.00510742 -6.16139648 52.18526367 -6.66674805 51.34057617 C-7.64676641 49.71530451 -8.62721774 48.09029382 -9.6081543 46.46557617 C-10.03942627 45.7462793 -10.47069824 45.02698242 -10.91503906 44.28588867 C-11.9381156 42.61233625 -13.01620629 40.9726388 -14.10424805 39.34057617 C-15.14677608 36.43262786 -15.91464107 33.44457494 -16.72924805 30.46557617 C-16.95870117 29.66249023 -17.1881543 28.8594043 -17.42456055 28.03198242 C-19.79048816 19.48366064 -19.79048816 19.48366064 -19.10424805 16.34057617 C-17.39347991 13.90288542 -15.38306563 11.82860293 -13.29174805 9.71557617 C-12.74454102 9.14323242 -12.19733398 8.57088867 -11.63354492 7.98120117 C-10.13668983 6.42084313 -8.62657825 4.87604991 -7.10424805 3.34057617 C-6.66415405 2.82259964 -6.22406006 2.30462311 -5.77062988 1.77095032 C-3.69115659 -0.01400963 -2.70825262 -0.02499925 0 0 Z " fill="#C7CBCC" transform="translate(207.104248046875,247.659423828125)"/>
<path d="M0 0 C1.65077076 1.41003336 3.30046914 2.82133788 4.9453125 4.23828125 C6.26538813 5.37013317 7.59295948 6.49333269 8.9296875 7.60546875 C14.47479406 12.2931994 19.25150945 17.51720679 24 23 C24.50901855 23.50869629 25.01803711 24.01739258 25.54248047 24.54150391 C29.97985479 29.17490142 31.15095579 33.07983784 31.875 39.375 C32.04902344 40.57382812 32.04902344 40.57382812 32.2265625 41.796875 C32.96498807 47.22957737 33.098818 52.52109104 33 58 C28.01158824 54.98069814 23.90306354 51.29865953 19.65234375 47.31640625 C17.10634177 44.9738955 17.10634177 44.9738955 14.37890625 43.33984375 C5.50122316 37.62407519 3.39846326 28.93357492 0.48388672 19.27661133 C-0.05909624 16.72196144 -0.29057316 14.60130872 0 12 C0.99 11.34 1.98 10.68 3 10 C2.2575 8.63875 2.2575 8.63875 1.5 7.25 C0 4 0 4 0 0 Z " fill="#888F91" transform="translate(267,253)"/>
<path d="M0 0 C1.17949387 3.53848161 0.74297664 4.61962912 -0.328125 8.12109375 C-0.63363281 9.14009766 -0.93914062 10.15910156 -1.25390625 11.20898438 C-1.58261719 12.27439453 -1.91132813 13.33980469 -2.25 14.4375 C-3.52094305 18.61905954 -4.76937661 22.80640158 -6 27 C-6.44436401 28.44802002 -6.44436401 28.44802002 -6.89770508 29.92529297 C-9.21362304 38.085494 -9.35298318 45.80611489 -9.1875 54.25 C-9.17240372 55.59243265 -9.15872418 56.93488201 -9.14648438 58.27734375 C-9.11150604 61.51866944 -9.06242337 64.75910662 -9 68 C-12.40615369 66.7350916 -15.31312597 65.28441399 -18.3203125 63.25 C-19.10277344 62.7240625 -19.88523437 62.198125 -20.69140625 61.65625 C-21.49449219 61.1096875 -22.29757812 60.563125 -23.125 60 C-23.93582031 59.4534375 -24.74664062 58.906875 -25.58203125 58.34375 C-27.08491926 57.33023214 -28.58653206 56.31481883 -30.08642578 55.296875 C-31.7191663 54.19032772 -33.35887945 53.09408036 -35 52 C-34.51233154 51.27111572 -34.02466309 50.54223145 -33.5222168 49.79125977 C-31.24267057 46.38254483 -28.96464806 42.97281729 -26.6875 39.5625 C-26.27705444 38.94796967 -25.86660889 38.33343933 -25.44372559 37.70028687 C-20.06312832 29.64086092 -14.70962267 21.56748741 -9.52612305 13.37915039 C-6.57003712 8.74677384 -3.3446714 4.35905064 0 0 Z " fill="#6E777C" transform="translate(342,152)"/>
<path d="M0 0 C1.32 1.65 2.64 3.3 4 5 C4.66 4.34 5.32 3.68 6 3 C5.938125 3.7425 5.87625 4.485 5.8125 5.25 C5.73375177 8.03700867 5.73375177 8.03700867 7.49893188 9.81115723 C9.45223772 12.6594486 9.31593583 14.34198724 9.20458984 17.77148438 C9.17400482 18.93369507 9.1434198 20.09590576 9.11190796 21.29333496 C9.03717758 23.17454041 9.03717758 23.17454041 8.9609375 25.09375 C8.91941559 26.39139282 8.87789368 27.68903564 8.83511353 29.02600098 C8.74562916 31.77690612 8.64512168 34.52712469 8.53662109 37.27734375 C8.3995771 40.76863549 8.28770164 44.26015989 8.18413353 47.75258636 C8.08117811 51.11679992 7.95772641 54.48016493 7.8359375 57.84375 C7.79826263 59.08169312 7.76058777 60.31963623 7.72177124 61.59509277 C7.39652357 69.39759576 6.20777532 76.50768698 4 84 C-2.56308822 77.43691178 -1.21988968 63.27429116 -1.421875 54.58203125 C-1.44977112 53.40662277 -1.47766724 52.23121429 -1.50640869 51.02018738 C-1.56257097 48.54679765 -1.61621463 46.07334958 -1.66748047 43.59985352 C-1.74996435 39.81413611 -1.85344843 36.02933165 -1.95703125 32.24414062 C-2.00911549 29.83596533 -2.05994017 27.42776239 -2.109375 25.01953125 C-2.14359558 23.88925003 -2.17781616 22.75896881 -2.21307373 21.59443665 C-2.23009338 20.53951523 -2.24711304 19.48459381 -2.26464844 18.39770508 C-2.28605896 17.47363358 -2.30746948 16.54956207 -2.32952881 15.5974884 C-1.9322049 12.46560978 -0.69775114 10.62693234 1 8 C1.15428349 5.7771809 1.15428349 5.7771809 0.6875 3.6875 C0.460625 2.470625 0.23375 1.25375 0 0 Z " fill="#586268" transform="translate(251,209)"/>
<path d="M0 0 C-8.54393884 17.51746119 -17.82490323 34.13238966 -28.80078125 50.2578125 C-31.64662172 54.44032275 -34.34848154 58.69190434 -37 63 C-37.66 62.67 -38.32 62.34 -39 62 C-38.38446592 57.69940819 -37.69833413 53.41286049 -37 49.125 C-36.82855469 47.92101562 -36.65710938 46.71703125 -36.48046875 45.4765625 C-33.98155196 30.6442822 -23.95475971 22.66265757 -13.36328125 12.79296875 C-12.54214844 12.00019531 -11.72101563 11.20742188 -10.875 10.390625 C-10.12992188 9.68969727 -9.38484375 8.98876953 -8.6171875 8.26660156 C-6.54752429 5.3658236 -6.69035055 3.48480489 -7 0 C-3.98968256 -0.93423645 -3.13349732 -1.04449911 0 0 Z " fill="#4E575C" transform="translate(247,249)"/>
<path d="M0 0 C0.53625 0.2475 1.0725 0.495 1.625 0.75 C1.955 2.4 2.285 4.05 2.625 5.75 C1.965 5.75 1.305 5.75 0.625 5.75 C0.79902344 6.8328125 0.97304687 7.915625 1.15234375 9.03125 C1.83154469 14.4648575 1.49873663 19.79799277 1.1875 25.25 C1.13529297 26.26320312 1.08308594 27.27640625 1.02929688 28.3203125 C0.90077518 30.79727608 0.76587234 33.27371337 0.625 35.75 C-5.32475991 31.83575303 -11.19292515 27.83517576 -16.9375 23.625 C-18.0212793 22.85736328 -18.0212793 22.85736328 -19.12695312 22.07421875 C-19.80822266 21.57277344 -20.48949219 21.07132813 -21.19140625 20.5546875 C-21.80443604 20.11108887 -22.41746582 19.66749023 -23.04907227 19.21044922 C-24.375 17.75 -24.375 17.75 -24.375 13.75 C-23.00146484 12.44140625 -23.00146484 12.44140625 -21.0859375 11.3125 C-20.39113281 10.89226562 -19.69632813 10.47203125 -18.98046875 10.0390625 C-18.24441406 9.61367187 -17.50835937 9.18828125 -16.75 8.75 C-15.31986885 7.89657635 -13.89017472 7.04241988 -12.4609375 6.1875 C-11.76790527 5.78047852 -11.07487305 5.37345703 -10.36083984 4.95410156 C-8.52118164 3.83863632 -6.76245741 2.65435516 -5 1.421875 C-2.375 -0.25 -2.375 -0.25 0 0 Z " fill="#838E92" transform="translate(202.375,205.25)"/>
<path d="M0 0 C4.04410592 2.94116794 7.14182786 6.31819775 10.34765625 10.11328125 C12.0501923 12.14125399 12.0501923 12.14125399 14.5 14.1875 C14.995 14.785625 15.49 15.38375 16 16 C15.48136562 19.95283503 14.26494126 23.74944066 13.125 27.5625 C12.79757812 28.67753906 12.47015625 29.79257812 12.1328125 30.94140625 C11.07515616 33.79707836 9.96511715 35.70362025 8 38 C7.75507813 37.47535156 7.51015625 36.95070313 7.2578125 36.41015625 C4.02445853 29.70930889 0.32137412 23.34308113 -3.52099609 16.97875977 C-3.94074707 16.27807373 -4.36049805 15.5773877 -4.79296875 14.85546875 C-5.1696167 14.23309326 -5.54626465 13.61071777 -5.93432617 12.96948242 C-7.14213329 10.73732206 -8.05741823 8.35645444 -9 6 C-6.03 4.02 -3.06 2.04 0 0 Z " fill="#4F595E" transform="translate(306,248)"/>
<path d="M0 0 C4.18952002 1.61135385 7.81715421 4.03798537 10 8 C10.88228504 17.16019473 7.96281403 27.07475131 6 36 C3.68359244 33.83813252 2.0229899 31.64460991 0.37109375 28.9453125 C-0.10650391 28.16542969 -0.58410156 27.38554687 -1.07617188 26.58203125 C-1.56666016 25.77121094 -2.05714844 24.96039063 -2.5625 24.125 C-3.05685547 23.32191406 -3.55121094 22.51882813 -4.06054688 21.69140625 C-6.3760745 17.88754896 -8.55078729 14.23616023 -10 10 C-9.0925 9.46375 -8.185 8.9275 -7.25 8.375 C-3.79561944 6.09936542 -2.08948315 3.53604841 0 0 Z " fill="#AEB1B2" transform="translate(203,275)"/>
<path d="M0 0 C1.91210613 2.52542319 3.60736783 5.16378143 5.34375 7.8125 C5.8903125 8.534375 6.436875 9.25625 7 10 C7.66 10 8.32 10 9 10 C8.32486248 13.67702016 6.73128145 16.43710889 4.83984375 19.640625 C4.21142578 20.71054687 3.58300781 21.78046875 2.93554688 22.8828125 C2.27619141 23.99398438 1.61683594 25.10515625 0.9375 26.25 C0.27427734 27.37664062 -0.38894531 28.50328125 -1.07226562 29.6640625 C-2.71040697 32.44536723 -4.35313045 35.22385752 -6 38 C-6.66 37.67 -7.32 37.34 -8 37 C-7.95875 35.783125 -7.9175 34.56625 -7.875 33.3125 C-7.858625 28.1379986 -8.66816676 23.19980153 -9.5625 18.11328125 C-10.69468552 10.05656821 -10.69468552 10.05656821 -8.3203125 6.4453125 C-7.23363281 5.29675781 -7.23363281 5.29675781 -6.125 4.125 C-5.40570313 3.34382813 -4.68640625 2.56265625 -3.9453125 1.7578125 C-2 0 -2 0 0 0 Z " fill="#1A2227" transform="translate(307,274)"/>
<path d="M0 0 C0.99 0 1.98 0 3 0 C3.37769531 0.94488281 3.75539063 1.88976562 4.14453125 2.86328125 C6.28355247 7.84598661 8.98460613 12.49377859 11.6875 17.1875 C12.21698242 18.11135498 12.74646484 19.03520996 13.29199219 19.98706055 C17.26052871 26.85378391 21.43286216 33.51197772 26 40 C21.68790072 40 19.6379198 37.41242503 16.5625 34.6875 C15.41879541 33.69045719 14.27428361 32.69433947 13.12890625 31.69921875 C12.62431885 31.25408936 12.11973145 30.80895996 11.59985352 30.3503418 C9.9720479 28.92556359 9.9720479 28.92556359 7.92456055 27.61206055 C5.64330531 25.70122352 5.0410164 24.30247658 4.078125 21.5078125 C3.62373047 20.20263672 3.62373047 20.20263672 3.16015625 18.87109375 C2.85980469 17.96488281 2.55945313 17.05867188 2.25 16.125 C1.77626953 14.77728516 1.77626953 14.77728516 1.29296875 13.40234375 C-0.16882127 9.11822322 -1.30200176 5.5783862 -1 1 C-0.67 0.67 -0.34 0.34 0 0 Z " fill="#999FA0" transform="translate(268,264)"/>
<path d="M0 0 C1.92498955 0.05526829 3.85013246 0.10544233 5.77539062 0.15039062 C10.45826124 0.27070707 15.13366481 0.45993948 19.8125 0.6875 C19.8125 1.0175 19.8125 1.3475 19.8125 1.6875 C18.83152344 1.85765625 17.85054687 2.0278125 16.83984375 2.203125 C8.47848558 3.69290626 0.36259978 5.51415564 -7.78515625 7.91796875 C-11.1875 8.6875 -11.1875 8.6875 -14.796875 8.671875 C-18.30105248 8.68802328 -20.23920084 9.27931518 -23.375 10.75 C-26.91897572 12.40757605 -28.4597672 12.7903592 -32.1875 11.6875 C-23.33814125 -1.00069888 -14.53075743 -0.72809898 0 0 Z " fill="#B6BBBD" transform="translate(224.1875,247.3125)"/>
<path d="M0 0 C3.13025051 2.99415266 3.95039301 4.25589516 4.25 8.75 C4.20582665 12.79186129 3.18705533 15.55118198 1 19 C-1.40545638 20.20272819 -2.94996953 20.10071472 -5.625 20.0625 C-6.85089844 20.04896484 -6.85089844 20.04896484 -8.1015625 20.03515625 C-8.72804687 20.02355469 -9.35453125 20.01195312 -10 20 C-11.19716659 17.54595776 -12.3829346 15.08748321 -13.5625 12.625 C-13.90474609 11.92632812 -14.24699219 11.22765625 -14.59960938 10.5078125 C-15.46030712 8.69947784 -16.23652436 6.85148044 -17 5 C-16.67 4.34 -16.34 3.68 -16 3 C-15.37351563 3.49371094 -14.74703125 3.98742187 -14.1015625 4.49609375 C-13.28429687 5.13675781 -12.46703125 5.77742187 -11.625 6.4375 C-10.81289062 7.07558594 -10.00078125 7.71367187 -9.1640625 8.37109375 C-7.10601894 10.02223547 -7.10601894 10.02223547 -5 11 C-4.731875 10.113125 -4.46375 9.22625 -4.1875 8.3125 C-3.08289181 5.23122452 -1.77150856 2.73778595 0 0 Z " fill="#DABB87" transform="translate(254,154)"/>
<path d="M0 0 C1.79512729 5.38538187 -1.61602736 11.32941019 -4.01269531 16.28417969 C-5.88445204 19.53707442 -8.46309364 21.362844 -11.5546875 23.375 C-15.34937048 25.89670626 -18.51777827 29.07220504 -21.8359375 32.1796875 C-24 34 -24 34 -27 35 C-25.63577197 32.14072207 -24.09727551 29.53924988 -22.3203125 26.91796875 C-21.80339844 26.15033203 -21.28648437 25.38269531 -20.75390625 24.59179688 C-19.67586825 23.0005921 -18.59774453 21.40944539 -17.51953125 19.81835938 C-15.13334016 16.27459915 -12.81306111 12.75042292 -10.7421875 9.01171875 C-8.97316332 5.95360744 -8.29075987 5.02836246 -5 4 C-4.278125 3.855625 -3.55625 3.71125 -2.8125 3.5625 C-2.214375 3.376875 -1.61625 3.19125 -1 3 C-0.67 2.01 -0.34 1.02 0 0 Z " fill="#1A2227" transform="translate(239,273)"/>
<path d="M0 0 C0.47091064 0.35698975 0.94182129 0.71397949 1.42700195 1.08178711 C5.0999382 3.85297646 8.79491883 6.58499879 12.54296875 9.25390625 C13.30673828 9.79853516 14.07050781 10.34316406 14.85742188 10.90429688 C16.42043445 12.01661681 17.98556968 13.1259596 19.55273438 14.23242188 C23.74065141 17.22683583 27.49322622 20.22617732 31 24 C29.4792733 24.02753831 27.95839326 24.04663375 26.4375 24.0625 C25.59058594 24.07410156 24.74367187 24.08570313 23.87109375 24.09765625 C22.44990234 24.04931641 22.44990234 24.04931641 21 24 C19.83984375 23.98195312 18.6796875 23.96390625 17.484375 23.9453125 C12.57722413 22.61400027 11.30454338 20.04616468 8.8125 15.8125 C8.40064453 15.15185547 7.98878906 14.49121094 7.56445312 13.81054688 C6.75153664 12.50550028 5.9480593 11.19451997 5.15478516 9.87744141 C4.05474726 8.0890077 2.8929241 6.36352504 1.69921875 4.63671875 C0 2 0 2 0 0 Z " fill="#1F272D" transform="translate(213,219)"/>
<path d="M0 0 C13.86 0 27.72 0 42 0 C38.54602565 3.45397435 37.30872286 4.56375905 33 6 C33.77537109 7.26457031 33.77537109 7.26457031 34.56640625 8.5546875 C35.22511719 9.65039062 35.88382812 10.74609375 36.5625 11.875 C37.22378906 12.96554687 37.88507813 14.05609375 38.56640625 15.1796875 C39.03949219 16.11039062 39.51257813 17.04109375 40 18 C39.67 18.66 39.34 19.32 39 20 C38.70351563 19.26394531 38.40703125 18.52789062 38.1015625 17.76953125 C35.62847087 12.81680543 33.32691566 9.2128003 28.01953125 7.26171875 C23.40996609 5.88005327 18.71791443 4.92767422 14 4 C12.57058465 3.68563669 11.14213212 3.36685214 9.71484375 3.04296875 C6.48280912 2.3229122 3.24820027 1.64232899 0 1 C0 0.67 0 0.34 0 0 Z " fill="#7E8589" transform="translate(264,248)"/>
<path d="M0 0 C1.17949387 3.53848161 0.74297664 4.61962912 -0.328125 8.12109375 C-0.78638672 9.64959961 -0.78638672 9.64959961 -1.25390625 11.20898438 C-1.74697266 12.80709961 -1.74697266 12.80709961 -2.25 14.4375 C-3.52094085 18.61905232 -4.77430043 22.80494962 -6 27 C-6.29624268 28.00595215 -6.59248535 29.0119043 -6.89770508 30.04833984 C-8.8279191 37.07342776 -9.38000896 43.48402063 -9.1875 50.75 C-9.17396484 51.74515625 -9.16042969 52.7403125 -9.14648438 53.765625 C-9.11169491 56.17769437 -9.0627653 58.58852505 -9 61 C-13.81254687 51.7206668 -12.83816825 40.33122188 -10.51171875 30.3984375 C-9.63948971 26.31028003 -9.33644971 22.1613517 -9 18 C-9.66 18 -10.32 18 -11 18 C-9.5810861 14.10508136 -7.74229459 10.79470749 -5.5 7.3125 C-4.8915625 6.35988281 -4.283125 5.40726563 -3.65625 4.42578125 C-2 2 -2 2 0 0 Z " fill="#545E61" transform="translate(342,152)"/>
<path d="M0 0 C1.32 1.65 2.64 3.3 4 5 C4.66 4.34 5.32 3.68 6 3 C5.938125 3.7425 5.87625 4.485 5.8125 5.25 C5.74594872 8.06000259 5.74594872 8.06000259 7.5625 10 C9 12 9 12 8.75 14.3125 C8.5025 15.199375 8.255 16.08625 8 17 C7.65596692 19.33177975 7.32050798 21.66487041 7 24 C6.67 24 6.34 24 6 24 C6 21.36 6 18.72 6 16 C4.68 16 3.36 16 2 16 C2.020625 17.0725 2.04125 18.145 2.0625 19.25 C2.0136549 22.1807059 1.743187 24.23959114 1 27 C1.33 27.33 1.66 27.66 2 28 C2.09823937 29.66429051 2.12973631 31.33281931 2.125 33 C2.12757813 33.9075 2.13015625 34.815 2.1328125 35.75 C2 38 2 38 1 39 C0.84344973 40.48638992 0.74933057 41.97949127 0.68359375 43.47265625 C0.64169922 44.37177734 0.59980469 45.27089844 0.55664062 46.19726562 C0.51732422 47.14279297 0.47800781 48.08832031 0.4375 49.0625 C0.39431641 50.01189453 0.35113281 50.96128906 0.30664062 51.93945312 C0.20020724 54.29281353 0.09818992 56.64628354 0 59 C-0.33 59 -0.66 59 -1 59 C-1.219303 52.54100577 -1.41412937 46.08160385 -1.59204102 39.62133789 C-1.65542697 37.42422832 -1.72439274 35.22727228 -1.79907227 33.03051758 C-1.90551388 29.87084461 -1.99180463 26.711161 -2.07421875 23.55078125 C-2.11157639 22.57039383 -2.14893402 21.59000641 -2.18742371 20.57991028 C-2.30038239 15.44406869 -2.21760281 12.24824121 1 8 C1.15428349 5.7771809 1.15428349 5.7771809 0.6875 3.6875 C0.460625 2.470625 0.23375 1.25375 0 0 Z " fill="#6E7A7F" transform="translate(251,209)"/>
<path d="M0 0 C0 3.97301335 -1.71216093 6.74642751 -3.5 10.1875 C-3.83386719 10.84169922 -4.16773438 11.49589844 -4.51171875 12.16992188 C-5.33576924 13.7827064 -6.16718155 15.39172559 -7 17 C-10.63 17 -14.26 17 -18 17 C-17.54625 16.34 -17.0925 15.68 -16.625 15 C-14.64679567 11.34793046 -13.89225708 8.04947443 -13 4 C-12.34 5.32 -11.68 6.64 -11 8 C-7.37 5.36 -3.74 2.72 0 0 Z " fill="#7D5C36" transform="translate(271,157)"/>
<path d="M0 0 C7.38461538 -0.36923077 7.38461538 -0.36923077 10.5 1.5 C10.995 1.995 11.49 2.49 12 3 C11.47731534 5.76276177 10.89130413 8.3260876 10 11 C10.87914688 13.6569191 10.87914688 13.6569191 12 16 C11.29875 15.195625 10.5975 14.39125 9.875 13.5625 C6.73708407 10.76566189 5.11241237 10.28691249 1 10 C1 11.65 1 13.3 1 15 C0.67 15 0.34 15 0 15 C0 10.05 0 5.1 0 0 Z " fill="#5B6A6B" transform="translate(286,343)"/>
<path d="M0 0 C1.875 1.125 1.875 1.125 3 3 C3.39365568 6.14924548 3.52854531 8.11909116 1.875 10.875 C-0.88090884 12.52854531 -2.85075452 12.39365568 -6 12 C-7.875 10.875 -7.875 10.875 -9 9 C-9.39365568 5.85075452 -9.52854531 3.88090884 -7.875 1.125 C-5.11909116 -0.52854531 -3.14924548 -0.39365568 0 0 Z " fill="#04090E" transform="translate(191,345)"/>
<path d="M0 0 C0.66 0 1.32 0 2 0 C3.03033882 2.12040742 4.04902854 4.24647908 5.0625 6.375 C5.63097656 7.55835938 6.19945312 8.74171875 6.78515625 9.9609375 C7.18605469 10.96382813 7.58695312 11.96671875 8 13 C7.67 13.66 7.34 14.32 7 15 C6.67 14.01 6.34 13.02 6 12 C4.35333797 12.1135629 2.70763918 12.24117381 1.0625 12.375 C0.14597656 12.44460938 -0.77054688 12.51421875 -1.71484375 12.5859375 C-2.46894531 12.72257812 -3.22304687 12.85921875 -4 13 C-4.33 13.66 -4.66 14.32 -5 15 C-5.66 14.67 -6.32 14.34 -7 14 C-4.69 9.38 -2.38 4.76 0 0 Z " fill="#404E51" transform="translate(256,343)"/>
<path d="M0 0 C7.92 0 15.84 0 24 0 C24 0.66 24 1.32 24 2 C10.29515419 6.71806167 10.29515419 6.71806167 3.5 4 C3.005 3.67 2.51 3.34 2 3 C2 2.34 2 1.68 2 1 C1.34 0.67 0.68 0.34 0 0 Z " fill="#B9BFC1" transform="translate(206,249)"/>
<path d="M0 0 C10.16932648 6.32323506 10.16932648 6.32323506 13 11 C13 12.32 13 13.64 13 15 C13.66 15.33 14.32 15.66 15 16 C12.36 16 9.72 16 7 16 C5.82845707 13.71070947 4.66261926 11.41881638 3.5 9.125 C3.16613281 8.47402344 2.83226562 7.82304687 2.48828125 7.15234375 C0 2.2265625 0 2.2265625 0 0 Z " fill="#EBCE9E" transform="translate(237,157)"/>
<path d="M0 0 C0.33 0.66 0.66 1.32 1 2 C0.01 3.485 0.01 3.485 -1 5 C-1.66 5 -2.32 5 -3 5 C-3.0928125 6.175625 -3.0928125 6.175625 -3.1875 7.375 C-3.455625 8.24125 -3.72375 9.1075 -4 10 C-5.6634941 10.674544 -7.33070745 11.3399359 -9 12 C-11.28870578 13.78961445 -11.28870578 13.78961445 -13.4375 15.875 C-16.80767286 18.97465731 -20.10549021 21.60337859 -24 24 C-24.66 23.67 -25.32 23.34 -26 23 C-20.04269904 17.61645549 -14.0561633 12.27199873 -8 7 C-6.49968066 5.68786505 -4.99967399 4.37537249 -3.5 3.0625 C-2.33333333 2.04166667 -1.16666667 1.02083333 0 0 Z " fill="#323B41" transform="translate(299,211)"/>
<path d="M0 0 C4.11289267 0.85685264 5.59686932 2.20235933 8 5.625 C8 9.14455419 7.63108355 11.47420059 5.9375 14.5625 C2.72688264 16.32316113 -0.49995202 16.37853146 -4 15.625 C-6.73080856 13.23554251 -7.76900145 11.65166021 -8.5625 8.125 C-7.50109364 3.40763841 -4.65431864 0.96964972 0 0 Z M-4.875 3.75 C-6.52854531 6.50590884 -6.39365568 8.47575452 -6 11.625 C-5 13.625 -5 13.625 -3 14.625 C0.14924548 15.01865568 2.11909116 15.15354531 4.875 13.5 C6.52854531 10.74409116 6.39365568 8.77424548 6 5.625 C5 3.625 5 3.625 3 2.625 C-0.14924548 2.23134432 -2.11909116 2.09645469 -4.875 3.75 Z " fill="#5F6C6D" transform="translate(188,342.375)"/>
<path d="M0 0 C0.66 0.33 1.32 0.66 2 1 C0.35 4.3 -1.3 7.6 -3 11 C-1.02 9.35 0.96 7.7 3 6 C3.66 6.33 4.32 6.66 5 7 C1.0412992 12.23570106 -3.51960679 16.3607605 -9 20 C-9.66 20 -10.32 20 -11 20 C-10.67 17.69 -10.34 15.38 -10 13 C-9.34 13.33 -8.68 13.66 -8 14 C-5.36 9.38 -2.72 4.76 0 0 Z " fill="#9DA4A8" transform="translate(272,224)"/>
<path d="M0 0 C0.66 0 1.32 0 2 0 C2 2.31 2 4.62 2 7 C4.97 7 7.94 7 11 7 C11 4.69 11 2.38 11 0 C11.33 0 11.66 0 12 0 C12 5.28 12 10.56 12 16 C11.67 16 11.34 16 11 16 C11 13.69 11 11.38 11 9 C8.03 9 5.06 9 2 9 C2 11.31 2 13.62 2 16 C1.34 16 0.68 16 0 16 C0 10.72 0 5.44 0 0 Z " fill="#546263" transform="translate(351,343)"/>
<path d="M0 0 C1.67542976 0.28604898 3.34385343 0.61781233 5 1 C4.34 1.66 3.68 2.32 3 3 C2.53759657 5.22329971 2.53759657 5.22329971 2.3671875 7.7890625 C2.28339844 8.73007813 2.19960938 9.67109375 2.11328125 10.640625 C2.03464844 11.62546875 1.95601563 12.6103125 1.875 13.625 C1.78863281 14.61757812 1.70226562 15.61015625 1.61328125 16.6328125 C1.4008156 19.08797111 1.19674456 21.54353974 1 24 C0.67 24 0.34 24 0 24 C-0.33 17.73 -0.66 11.46 -1 5 C-2.65 5.33 -4.3 5.66 -6 6 C-4 4 -2 2 0 0 Z " fill="#455055" transform="translate(306,205)"/>
<path d="M0 0 C2 2 2 2 2.3125 5.75 C2.21729931 9.77039828 1.17409787 12.5716149 -1 16 C-3.40545638 17.20272819 -4.94996953 17.10071472 -7.625 17.0625 C-8.85089844 17.04896484 -8.85089844 17.04896484 -10.1015625 17.03515625 C-10.72804687 17.02355469 -11.35453125 17.01195312 -12 17 C-12 16.67 -12 16.34 -12 16 C-9.36 16 -6.72 16 -4 16 C-3.48739971 13.4553057 -2.98293709 10.90988649 -2.5 8.359375 C-2.335 7.49828125 -2.17 6.6371875 -2 5.75 C-1.835 4.87859375 -1.67 4.0071875 -1.5 3.109375 C-1 1 -1 1 0 0 Z " fill="#BA9969" transform="translate(256,157)"/>
<path d="M0 0 C0.66 0 1.32 0 2 0 C2.04898438 0.62648437 2.09796875 1.25296875 2.1484375 1.8984375 C2.22320312 2.71570313 2.29796875 3.53296875 2.375 4.375 C2.44460937 5.18710938 2.51421875 5.99921875 2.5859375 6.8359375 C2.82892588 9.20334191 2.82892588 9.20334191 5 11 C5.33 8.36 5.66 5.72 6 3 C6.33 3 6.66 3 7 3 C7.66 6.96 8.32 10.92 9 15 C2.71185101 12.4847404 0.08579696 9.25316752 -4 4 C-3.01 4 -2.02 4 -1 4 C-0.67 2.68 -0.34 1.36 0 0 Z " fill="#3E484E" transform="translate(239,229)"/>
<path d="M0 0 C0.66 0 1.32 0 2 0 C2 5.28 2 10.56 2 16 C1.34 16 0.68 16 0 16 C0 13.36 0 10.72 0 8 C-1.65 8.66 -3.3 9.32 -5 10 C-3.66749209 6.4124787 -2.169283 3.1635377 0 0 Z " fill="#3C4649" transform="translate(159,343)"/>
<path d="M0 0 C2.33294775 -0.04241723 4.66702567 -0.04092937 7 0 C8 1 8 1 8.0625 3.5625 C8.041875 4.366875 8.02125 5.17125 8 6 C5.36 6.33 2.72 6.66 0 7 C0 4.69 0 2.38 0 0 Z " fill="#070C12" transform="translate(288,345)"/>
<path d="M0 0 C2 1 2 1 3.125 3.375 C4 6 4 6 4 9 C4.94978897 11.15028304 4.94978897 11.15028304 6 13 C4.35 13.66 2.7 14.32 1 15 C0.46845258 13.39935157 -0.04988353 11.79431126 -0.5625 10.1875 C-0.85253906 9.29417969 -1.14257812 8.40085937 -1.44140625 7.48046875 C-2.13679823 4.39253932 -1.38949104 2.77898207 0 0 Z " fill="#71797C" transform="translate(265,251)"/>
<path d="M0 0 C1.32 0.33 2.64 0.66 4 1 C-0.75 5 -0.75 5 -3 5 C-2.22462891 6.26457031 -2.22462891 6.26457031 -1.43359375 7.5546875 C-0.77488281 8.65039062 -0.11617188 9.74609375 0.5625 10.875 C1.22378906 11.96554687 1.88507813 13.05609375 2.56640625 14.1796875 C3.03949219 15.11039062 3.51257813 16.04109375 4 17 C3.67 17.66 3.34 18.32 3 19 C2.57589844 18.24074219 2.15179688 17.48148437 1.71484375 16.69921875 C-2.96178594 8.74486683 -2.96178594 8.74486683 -11 5 C-11 4.67 -11 4.34 -11 4 C-10.37351562 3.96261719 -9.74703125 3.92523438 -9.1015625 3.88671875 C-8.28429687 3.82097656 -7.46703125 3.75523437 -6.625 3.6875 C-5.81289063 3.62949219 -5.00078125 3.57148438 -4.1640625 3.51171875 C-1.62078662 3.17009472 -1.62078662 3.17009472 0 0 Z " fill="#899194" transform="translate(300,249)"/>
<path d="M0 0 C13.53 0 27.06 0 41 0 C41 0.33 41 0.66 41 1 C36.38 1.66 31.76 2.32 27 3 C27 2.34 27 1.68 27 1 C18.09 1 9.18 1 0 1 C0 0.67 0 0.34 0 0 Z " fill="#929A9E" transform="translate(203,248)"/>
<path d="M0 0 C0.66 0.33 1.32 0.66 2 1 C2.625 3.5625 2.625 3.5625 3 6 C2.34 6 1.68 6 1 6 C1.17402344 7.0828125 1.34804687 8.165625 1.52734375 9.28125 C2.20654469 14.7148575 1.87373663 20.04799277 1.5625 25.5 C1.51029297 26.51320312 1.45808594 27.52640625 1.40429688 28.5703125 C1.27577518 31.04727608 1.14087234 33.52371337 1 36 C-0.65 35.01 -2.3 34.02 -4 33 C-3.01 32.505 -3.01 32.505 -2 32 C-1.34 32.33 -0.68 32.66 0 33 C0 22.11 0 11.22 0 0 Z " fill="#6E787E" transform="translate(202,205)"/>
<path d="M0 0 C3.66161578 1.22053859 4.16270474 2.36782304 6.1875 5.5625 C6.71730469 6.38878906 7.24710938 7.21507812 7.79296875 8.06640625 C8.19128906 8.70449219 8.58960938 9.34257812 9 10 C8.67 10.66 8.34 11.32 8 12 C6.35 9.69 4.7 7.38 3 5 C2.67 8.3 2.34 11.6 2 15 C1.34 15 0.68 15 0 15 C0 10.05 0 5.1 0 0 Z " fill="#697374" transform="translate(145,343)"/>
<path d="M0 0 C0.66 1.32 1.32 2.64 2 4 C2.99 3.34 3.98 2.68 5 2 C5.99 2.33 6.98 2.66 8 3 C6.35 3.66 4.7 4.32 3 5 C3.061875 6.175625 3.061875 6.175625 3.125 7.375 C3 10 3 10 1 12 C-1.125 11.625 -1.125 11.625 -3 11 C-2.690625 10.29875 -2.38125 9.5975 -2.0625 8.875 C-0.96697322 5.91063343 -0.43577008 3.12301892 0 0 Z " fill="#846139" transform="translate(258,161)"/>
<path d="M0 0 C0.66 0 1.32 0 2 0 C2 7.92 2 15.84 2 24 C-0.80670524 18.38658953 -1.13806891 13.99693686 -1.125 7.75 C-1.12757813 6.50734375 -1.13015625 5.2646875 -1.1328125 3.984375 C-1 1 -1 1 0 0 Z " fill="#394145" transform="translate(331,189)"/>
<path d="M0 0 C0.66 0.33 1.32 0.66 2 1 C2.02688151 2.64574566 2.04634123 4.29161413 2.0625 5.9375 C2.07410156 6.85402344 2.08570313 7.77054688 2.09765625 8.71484375 C2 11 2 11 1 12 C0.84344973 13.48638992 0.74933057 14.97949127 0.68359375 16.47265625 C0.64169922 17.37177734 0.59980469 18.27089844 0.55664062 19.19726562 C0.51732422 20.14279297 0.47800781 21.08832031 0.4375 22.0625 C0.39431641 23.01189453 0.35113281 23.96128906 0.30664062 24.93945312 C0.20020724 27.29281353 0.09818992 29.64628354 0 32 C-0.33 32 -0.66 32 -1 32 C-1.02949232 28.54168516 -1.0469616 25.08340346 -1.0625 21.625 C-1.07087891 20.65949219 -1.07925781 19.69398438 -1.08789062 18.69921875 C-1.10902305 12.40175711 -0.76107198 6.25160137 0 0 Z " fill="#697279" transform="translate(251,236)"/>
<path d="M0 0 C-2.95261926 1.36688747 -5.91290034 2.71629538 -8.875 4.0625 C-9.71675781 4.45244141 -10.55851563 4.84238281 -11.42578125 5.24414062 C-12.63427734 5.79038086 -12.63427734 5.79038086 -13.8671875 6.34765625 C-14.61081543 6.68804932 -15.35444336 7.02844238 -16.12060547 7.37915039 C-18 8 -18 8 -20 7 C-16.80448428 2.78772928 -13.14070731 1.91422346 -8.2421875 0.61328125 C-2.86148238 -0.85844471 -2.86148238 -0.85844471 0 0 Z " fill="#D4D8D7" transform="translate(208,257)"/>
<path d="M0 0 C0.66 1.32 1.32 2.64 2 4 C1.01 5.485 1.01 5.485 0 7 C-0.66 7 -1.32 7 -2 7 C-2.2475 7.5775 -2.495 8.155 -2.75 8.75 C-4.16683317 11.3002997 -5.87627537 13.01785701 -8 15 C-6.51194289 9.19657726 -3.40902445 4.82409121 0 0 Z " fill="#737B80" transform="translate(205,268)"/>
<path d="M0 0 C4.455 2.97 4.455 2.97 9 6 C8.01 6.66 7.02 7.32 6 8 C6.33 10.31 6.66 12.62 7 15 C5.23772048 12.35658072 3.80128992 9.76922765 2.375 6.9375 C1.92898437 6.05964844 1.48296875 5.18179688 1.0234375 4.27734375 C0 2 0 2 0 0 Z " fill="#D7C08E" transform="translate(237,157)"/>
<path d="M0 0 C2.25 -0.25 2.25 -0.25 5 0 C7.3125 2 7.3125 2 9 4 C8.01 4.66 7.02 5.32 6 6 C5.67 5.67 5.34 5.34 5 5 C4.34 5.66 3.68 6.32 3 7 C2.34 6.67 1.68 6.34 1 6 C0.375 2.9375 0.375 2.9375 0 0 Z " fill="#4D555A" transform="translate(261,247)"/>
<path d="M0 0 C0.66 0.33 1.32 0.66 2 1 C-0.475 5.455 -0.475 5.455 -3 10 C-6.63 10 -10.26 10 -14 10 C-14 9.67 -14 9.34 -14 9 C-12.741875 8.896875 -11.48375 8.79375 -10.1875 8.6875 C-6.98132453 8.2825669 -6.98132453 8.2825669 -4.1875 6.75 C-2.69467583 4.55004859 -1.31228845 2.31212726 0 0 Z " fill="#614526" transform="translate(267,164)"/>
<path d="M0 0 C4.31392226 0.4793247 6.16569547 1.7457985 9 5 C8.01 5.33 7.02 5.66 6 6 C6.33 7.32 6.66 8.64 7 10 C3.66442368 7.0094833 1.84916079 4.06815373 0 0 Z " fill="#DADEDD" transform="translate(167,151)"/>
<path d="M0 0 C0.66 0 1.32 0 2 0 C3.5625 2.8125 3.5625 2.8125 5 6 C4.67 6.99 4.34 7.98 4 9 C2.68 7.35 1.36 5.7 0 4 C-0.99 6.31 -1.98 8.62 -3 11 C-4 8 -4 8 -3.22265625 5.95703125 C-2.83980469 5.24933594 -2.45695313 4.54164063 -2.0625 3.8125 C-1.68222656 3.09707031 -1.30195313 2.38164062 -0.91015625 1.64453125 C-0.60980469 1.10183594 -0.30945313 0.55914062 0 0 Z " fill="#586768" transform="translate(256,343)"/>
<path d="M0 0 C2.37507855 -0.02719556 4.74983964 -0.04693247 7.125 -0.0625 C8.12273437 -0.07506836 8.12273437 -0.07506836 9.140625 -0.08789062 C13.20681354 -0.10782292 17.0120092 0.21109839 21 1 C21 1.33 21 1.66 21 2 C13.54932699 3.04819354 7.2890898 2.91318843 0 1 C0 0.67 0 0.34 0 0 Z " fill="#787F83" transform="translate(264,248)"/>
<path d="M0 0 C0.99 0.33 1.98 0.66 3 1 C4.0625 3.25 4.0625 3.25 5 6 C5.37125 6.928125 5.7425 7.85625 6.125 8.8125 C6.41375 9.534375 6.7025 10.25625 7 11 C6.34 11 5.68 11 5 11 C5.33 11.66 5.66 12.32 6 13 C5.34 13.66 4.68 14.32 4 15 C3.3299166 12.87607494 2.66403203 10.75082476 2 8.625 C1.62875 7.44164062 1.2575 6.25828125 0.875 5.0390625 C0 2 0 2 0 0 Z " fill="#AFB7B7" transform="translate(165,149)"/>
<path d="M0 0 C2.50037734 2.17424117 3.43628586 3.73045798 4 7 C2.02 7 0.04 7 -2 7 C-1.125 1.125 -1.125 1.125 0 0 Z " fill="#080C12" transform="translate(256,346)"/>
<path d="M0 0 C0.66 0.66 1.32 1.32 2 2 C0.75803878 3.15454162 -0.49392845 4.29832562 -1.75 5.4375 C-2.79414063 6.39462891 -2.79414063 6.39462891 -3.859375 7.37109375 C-5.98792725 8.99081325 -7.39023405 9.58267256 -10 10 C-7.02911382 6.00073014 -3.87051275 3.07881696 0 0 Z " fill="#576166" transform="translate(283,225)"/>
<path d="M0 0 C0.33 0 0.66 0 1 0 C1.29341888 5.67276511 1.00559652 8.99067246 -2 14 C-2.66 14 -3.32 14 -4 14 C-4 13.34 -4 12.68 -4 12 C-3.34 12 -2.68 12 -2 12 C-1.93941406 11.21753906 -1.87882813 10.43507812 -1.81640625 9.62890625 C-1.73261719 8.61699219 -1.64882812 7.60507813 -1.5625 6.5625 C-1.48128906 5.55316406 -1.40007812 4.54382813 -1.31640625 3.50390625 C-1 1 -1 1 0 0 Z " fill="#B99260" transform="translate(257,159)"/>
<path d="M0 0 C0.33 0 0.66 0 1 0 C1.19622241 4.21878192 0.80230168 7.17010894 -1 11 C-2.20628008 8.66785852 -3.1654738 6.50357861 -4 4 C-3.67 3.34 -3.34 2.68 -3 2 C-2.01 2 -1.02 2 0 2 C0 1.34 0 0.68 0 0 Z " fill="#E1C697" transform="translate(252,161)"/>
<path d="M0 0 C2.7839183 1.39195915 2.97898997 3.15575779 4 6 C3.34 6 2.68 6 2 6 C2 6.66 2 7.32 2 8 C1.01 8 0.02 8 -1 8 C-1.625 5.125 -1.625 5.125 -2 2 C-1.34 1.34 -0.68 0.68 0 0 Z " fill="#686F72" transform="translate(265,251)"/>
<path d="M0 0 C0.99 0.33 1.98 0.66 3 1 C3.33 1.99 3.66 2.98 4 4 C2.125 7.1875 2.125 7.1875 0 10 C-0.33 10 -0.66 10 -1 10 C-0.67 6.7 -0.34 3.4 0 0 Z " fill="#C5CBCB" transform="translate(264,229)"/>
<path d="M0 0 C0.99 0 1.98 0 3 0 C2.6875 1.9375 2.6875 1.9375 2 4 C1.01 4.33 0.02 4.66 -1 5 C-2.70855022 8.00007271 -2.70855022 8.00007271 -4 11 C-5 8 -5 8 -4.109375 5.95703125 C-3.66078125 5.24933594 -3.2121875 4.54164063 -2.75 3.8125 C-2.31171875 3.09707031 -1.8734375 2.38164062 -1.421875 1.64453125 C-0.95265625 1.10183594 -0.4834375 0.55914062 0 0 Z " fill="#6B7070" transform="translate(262,201)"/>
<path d="M0 0 C0.66 0 1.32 0 2 0 C0.92598892 2.91517292 0.22189824 4.77810176 -2 7 C-4.625 7.125 -4.625 7.125 -7 7 C-5.75 5 -5.75 5 -4 3 C-2.68 3 -1.36 3 0 3 C0 2.01 0 1.02 0 0 Z " fill="#161F23" transform="translate(295,218)"/>
<path d="M0 0 C0.70125 0.268125 1.4025 0.53625 2.125 0.8125 C1.135 1.4725 0.145 2.1325 -0.875 2.8125 C-1.205 2.4825 -1.535 2.1525 -1.875 1.8125 C-3.195 3.1325 -4.515 4.4525 -5.875 5.8125 C-6.865 5.4825 -7.855 5.1525 -8.875 4.8125 C-3.58269231 -0.23365385 -3.58269231 -0.23365385 0 0 Z " fill="#3C474D" transform="translate(308.875,205.1875)"/>
<path d="M0 0 C0.66 0.66 1.32 1.32 2 2 C1.69903201 6.13830989 1.32101984 8.51847024 -1 12 C-1.66 11.67 -2.32 11.34 -3 11 C-2.690625 10.29875 -2.38125 9.5975 -2.0625 8.875 C-0.96697322 5.91063343 -0.43577008 3.12301892 0 0 Z " fill="#9A764A" transform="translate(258,161)"/>
<path d="M0 0 C0.66 0 1.32 0 2 0 C2 4.29 2 8.58 2 13 C1.67 13 1.34 13 1 13 C1 10.03 1 7.06 1 4 C0.01 4.33 -0.98 4.66 -2 5 C-1.34 3.35 -0.68 1.7 0 0 Z " fill="#707A7B" transform="translate(159,343)"/>
<path d="M0 0 C-2.97 2.475 -2.97 2.475 -6 5 C-6.33 3.35 -6.66 1.7 -7 0 C-3.98968256 -0.93423645 -3.13349732 -1.04449911 0 0 Z " fill="#586267" transform="translate(247,249)"/>
<path d="M0 0 C0.66 0 1.32 0 2 0 C1.88637738 1.4800841 1.75877092 2.95910074 1.625 4.4375 C1.52058594 5.67306641 1.52058594 5.67306641 1.4140625 6.93359375 C1.27742188 7.61550781 1.14078125 8.29742187 1 9 C0.01 9.495 0.01 9.495 -1 10 C-1.02689216 8.52093108 -1.04634621 7.04172517 -1.0625 5.5625 C-1.07410156 4.73878906 -1.08570313 3.91507813 -1.09765625 3.06640625 C-1 1 -1 1 0 0 Z " fill="#434C50" transform="translate(331,189)"/>
<path d="M0 0 C0.99 0.33 1.98 0.66 3 1 C3.33 2.98 3.66 4.96 4 7 C3.01 7 2.02 7 1 7 C0.67 4.69 0.34 2.38 0 0 Z " fill="#F0D9AD" transform="translate(246,165)"/>
<path d="M0 0 C1.25541557 3.76624671 0.37061958 5.37188934 -1 9 C-1.66 8.67 -2.32 8.34 -3 8 C-3.36923077 3.44615385 -3.36923077 3.44615385 -1.5 1.1875 C-1.005 0.795625 -0.51 0.40375 0 0 Z " fill="#485455" transform="translate(342,152)"/>
<path d="M0 0 C3.53600465 1.91135386 5.78972846 3.62642766 8 7 C4.66272214 5.82744291 2.22562513 4.81131596 0 2 C0 1.34 0 0.68 0 0 Z " fill="#0A0D0E" transform="translate(274,290)"/>
<path d="M0 0 C1.65 1.32 3.3 2.64 5 4 C1.25 7 1.25 7 -1 7 C-0.67 4.69 -0.34 2.38 0 0 Z " fill="#7B8287" transform="translate(262,237)"/>
<path d="M0 0 C0.66 0 1.32 0 2 0 C1.34 2.31 0.68 4.62 0 7 C-1.32 6.01 -2.64 5.02 -4 4 C-3.01 4 -2.02 4 -1 4 C-0.67 2.68 -0.34 1.36 0 0 Z " fill="#4B545A" transform="translate(239,229)"/>
<path d="M0 0 C2.31 1.65 4.62 3.3 7 5 C6.01 5.99 5.02 6.98 4 8 C0 2.25 0 2.25 0 0 Z " fill="#2F3B43" transform="translate(213,219)"/>
<path d="M0 0 C0.66 0.99 1.32 1.98 2 3 C0.35 4.98 -1.3 6.96 -3 9 C-3.33 8.34 -3.66 7.68 -4 7 C-3.22265625 5.2734375 -3.22265625 5.2734375 -2.0625 3.375 C-1.381875 2.26125 -0.70125 1.1475 0 0 Z " fill="#8A9094" transform="translate(201,274)"/>
<path d="M0 0 C0 0.99 0 1.98 0 3 C-0.639375 3.268125 -1.27875 3.53625 -1.9375 3.8125 C-4.33131686 4.88667752 -4.33131686 4.88667752 -5 8 C-5.33 6.68 -5.66 5.36 -6 4 C-4.02 2.68 -2.04 1.36 0 0 Z " fill="#5D666A" transform="translate(303,250)"/>
</svg>
